<svg width="32" height="32" viewBox="0 0 32 32" fill="none" xmlns="http://www.w3.org/2000/svg">
  <path fill-rule="evenodd" clip-rule="evenodd" d="M16 4C9.37258 4 4 9.37258 4 16C4 22.6274 9.37258 28 16 28C21.5 28 26.15 24.3 27.5 19.2C27.7 18.4 27.2 17.6 26.4 17.6C25.7 17.6 25.1 18.1 24.9 18.8C23.9 22.3 20.3 25 16 25C11.0294 25 7 20.9706 7 16C7 11.0294 11.0294 7 16 7C20.3 7 23.9 9.7 24.9 13.2C25.1 13.9 25.7 14.4 26.4 14.4C27.2 14.4 27.7 13.6 27.5 12.8C26.15 7.7 21.5 4 16 4Z" fill="#00712D"/>
</svg>